# xmcd
#
# Track frame offsets:
#	150
#	17806
#	37805
#	59114
#	74305
#	89654
#	108765
#	123956
#	145107
#	161672
#	176884
#	195997
#	213709
#
# Disc length: 3042 seconds
#
# Revision: 1
# Processed by: cddbd v1.5.2PL0 Copyright (c) Steve Scherf et al.
# Submitted via: audiograbber 1.83.01
#
DISCID=bb0be00d
DTITLE=Felicity Urquhart - My Life
DYEAR=2006
DGENRE=Country
TTITLE0=The Flood
TTITLE1=On and On
TTITLE2=Big Black Cloud
TTITLE3=Breathe
TTITLE4=No Mistakes
TTITLE5=A Little Joy
TTITLE6=My Life
TTITLE7=Lonely Girl
TTITLE8=That Boy Sure Can Jump A Train
TTITLE9=Mr Catfish
TTITLE10=Still Alive
TTITLE11=Take Me Back
TTITLE12=Turn Out The Light
EXTD=
EXTT0=
EXTT1=
EXTT2=
EXTT3=
EXTT4=
EXTT5=
EXTT6=
EXTT7=
EXTT8=
EXTT9=
EXTT10=
EXTT11=
EXTT12=
PLAYORDER=
